<svg viewBox="0 0 2000 2000" height="2000" width="2000" xmlns="http://www.w3.org/2000/svg"><g transform="matrix(20,0,0,20,0,0)"><path d="M41.612,7.18a1.656,1.656,0,0,0-1.505.964L22.854,45.606a4.573,4.573,0,0,0,3.971,6.842h10.24a4.573,4.573,0,0,1,4.361,5.95L33.277,84.205a2.287,2.287,0,0,0,3.966,2.117L66.06,46.158a4.573,4.573,0,0,0-3.571-7.43H54.251a4.573,4.573,0,0,1-4.09-6.618L65.308,9.767A1.657,1.657,0,0,0,63.937,7.18Z" fill="none" stroke="#020064" stroke-linecap="round" stroke-linejoin="round"></path></g></svg>