<svg viewBox="0 0 2000 2000" height="2000" width="2000" xmlns="http://www.w3.org/2000/svg"><g transform="matrix(20,0,0,20,0,0)"><path d="M17.769 79.727L28.58 79.727" fill="none" stroke="#020064" stroke-linecap="round" stroke-linejoin="round"></path><path d="M17.415 67.605 L28.227 67.605 L28.227 75.173 L17.415 75.173 Z" fill="none" stroke="#020064" stroke-linecap="round" stroke-linejoin="round"></path><path d="M78.583,55.545v23.3a5.66,5.66,0,0,1-5.66,5.66H10.66A5.66,5.66,0,0,1,5,78.846V42.962a5.66,5.66,0,0,1,5.66-5.66H55.02" fill="none" stroke="#020064" stroke-linecap="round" stroke-linejoin="round"></path><path d="M53.675 74.694 A5.674 5.674 0 1 0 65.023 74.694 A5.674 5.674 0 1 0 53.675 74.694 Z" fill="none" stroke="#020064" stroke-linecap="round" stroke-linejoin="round"></path><path d="M60.294 74.694 A5.674 5.674 0 1 0 71.642 74.694 A5.674 5.674 0 1 0 60.294 74.694 Z" fill="none" stroke="#020064" stroke-linecap="round" stroke-linejoin="round"></path><path d="M59.23,60.663a3.538,3.538,0,0,1-7.075,0c0-1.954,3.537-8.844,3.537-8.844S59.23,58.709,59.23,60.663Z" fill="none" stroke="#020064" stroke-linecap="round" stroke-linejoin="round"></path><path d="M26.566 48.861 A2.492 2.492 0 1 0 31.550 48.861 A2.492 2.492 0 1 0 26.566 48.861 Z" fill="none" stroke="#020064" stroke-linecap="round" stroke-linejoin="round"></path><path d="M49.214 48.861 A2.492 2.492 0 1 0 54.198 48.861 A2.492 2.492 0 1 0 49.214 48.861 Z" fill="none" stroke="#020064" stroke-linecap="round" stroke-linejoin="round"></path><path d="M32.728,66.181A1.99,1.99,0,0,1,30.8,63.705a9.9,9.9,0,0,1,19.164,0,1.99,1.99,0,0,1-1.928,2.476,47.107,47.107,0,0,0-7.654-.99A47.107,47.107,0,0,0,32.728,66.181Z" fill="none" stroke="#020064" stroke-linecap="round" stroke-linejoin="round"></path><path d="M58.192 33.898 A18.404 18.404 0 1 0 95.000 33.898 A18.404 18.404 0 1 0 58.192 33.898 Z" fill="none" stroke="#020064" stroke-linecap="round" stroke-linejoin="round"></path><path d="M80.458,33.837,85.02,29.2a2.711,2.711,0,0,0-3.867-3.8l-4.561,4.639-4.639-4.561a2.711,2.711,0,0,0-3.8,3.866L72.791,33.9l-4.561,4.64a2.711,2.711,0,0,0,3.866,3.8L76.657,37.7,81.3,42.264A2.711,2.711,0,1,0,85.1,38.4Z" fill="none" stroke="#020064" stroke-linecap="round" stroke-linejoin="round"></path></g></svg>