<svg viewBox="0 0 2000 2000" height="2000" width="2000" xmlns="http://www.w3.org/2000/svg"><g transform="matrix(20,0,0,20,0,0)"><path d="M34.639,34.664a18.645,18.645,0,0,0,3.594,11.741,1.363,1.363,0,0,0,1.816.332c2.225-1.39,7.38-5.752,9.956-17.343a46.348,46.348,0,0,0,.66-17.786A1.368,1.368,0,0,1,52.71,10.2,56.433,56.433,0,0,1,80.29,58.158C80.681,75.351,67.1,90.055,49.906,90A30.3,30.3,0,0,1,19.7,59.7c0-12.467,5.642-21.549,12.84-26.224A1.37,1.37,0,0,1,34.639,34.664Z" fill="none" stroke="#020064" stroke-linecap="round" stroke-linejoin="round"></path><path d="M59.533,54.091a1.379,1.379,0,0,0-1.9,1.442,17.207,17.207,0,0,1,.176,3.14c-.237,6.866-4.523,11.06-9.328,10.894a7.546,7.546,0,0,1-6.761-4.513,1.382,1.382,0,0,0-2.62.334,15.152,15.152,0,1,0,20.437-11.3Z" fill="none" stroke="#020064" stroke-linecap="round" stroke-linejoin="round"></path></g></svg>