<svg viewBox="0 0 2000 2000" height="2000" width="2000" xmlns="http://www.w3.org/2000/svg"><g transform="matrix(20,0,0,20,0,0)"><path d="M56.720 58.918 A19.140 19.140 0 1 0 95.000 58.918 A19.140 19.140 0 1 0 56.720 58.918 Z" fill="none" stroke="#020064" stroke-linecap="round" stroke-linejoin="round"></path><path d="M71.881,68.893a2.766,2.766,0,0,1-1.964-.814l-5.556-5.556A2.778,2.778,0,1,1,68.289,58.6l3.592,3.592,11.31-11.31a2.778,2.778,0,0,1,3.928,3.928L73.845,68.079A2.769,2.769,0,0,1,71.881,68.893Z" fill="none" stroke="#020064" stroke-linecap="round" stroke-linejoin="round"></path><path d="M70.154,37.221v-12.2a3.078,3.078,0,0,0-3.078-3.077h-59A3.077,3.077,0,0,0,5,25.019V65.4A3.077,3.077,0,0,0,8.077,68.48H55.565" fill="none" stroke="#020064" stroke-linecap="round" stroke-linejoin="round"></path><path d="M5 28.822H70.154V34.839H5z" fill="none" stroke="#020064" stroke-linecap="round" stroke-linejoin="round"></path><path d="M54.733,49.459c0,.98-1.324,1.775-2.958,1.775s-2.958-.8-2.958-1.775,1.325-1.775,2.958-1.775S54.733,48.479,54.733,49.459Z" fill="none" stroke="#020064" stroke-linecap="round" stroke-linejoin="round"></path><path d="M20.42,49.459c0,.98,1.325,1.775,2.958,1.775s2.958-.8,2.958-1.775-1.324-1.775-2.958-1.775S20.42,48.479,20.42,49.459Z" fill="none" stroke="#020064" stroke-linecap="round" stroke-linejoin="round"></path><path d="M27.240 42.359 A2.193 2.193 0 1 0 31.626 42.359 A2.193 2.193 0 1 0 27.240 42.359 Z" fill="none" stroke="#020064" stroke-linecap="round" stroke-linejoin="round"></path><path d="M43.528 42.359 A2.193 2.193 0 1 0 47.914 42.359 A2.193 2.193 0 1 0 43.528 42.359 Z" fill="none" stroke="#020064" stroke-linecap="round" stroke-linejoin="round"></path><path d="M37.577,63.657a11.162,11.162,0,0,0,11.26-9.389.994.994,0,0,0-.323-.868,1.123,1.123,0,0,0-.929-.272,63.28,63.28,0,0,1-20.017,0,1.122,1.122,0,0,0-.928.272,1,1,0,0,0-.324.868A11.163,11.163,0,0,0,37.577,63.657Z" fill="none" stroke="#020064" stroke-linecap="round" stroke-linejoin="round"></path><path d="M29.307,60.269a18.223,18.223,0,0,1,8.27-1.734,18.229,18.229,0,0,1,8.27,1.734,11.787,11.787,0,0,1-16.54,0Z" fill="none" stroke="#020064" stroke-linecap="round" stroke-linejoin="round"></path></g></svg>