<?xml version="1.0" encoding="UTF-8"?><svg xmlns="http://www.w3.org/2000/svg" xmlns:xlink="http://www.w3.org/1999/xlink" contentScriptType="text/ecmascript" width="375pt" zoomAndPan="magnify" contentStyleType="text/css" viewBox="0 0 375 374.999991" height="374.999991pt" preserveAspectRatio="xMidYMid meet" version="1.2"><defs><clipPath xml:id="clip1" id="clip1"><path d="M 37.5 0 L 330.75 0 L 330.75 375 L 37.5 375 Z M 37.5 0 "/></clipPath></defs><g xml:id="surface1" id="surface1"><path style=" stroke:none;fill-rule:nonzero;fill:rgb(0.779724%,0%,39.219666%);fill-opacity:1;" d="M 137.199219 299.078125 C 137.492188 302 140.121094 304.335938 143.046875 304.335938 C 143.339844 304.335938 143.339844 304.335938 143.632812 304.335938 C 146.847656 304.042969 149.1875 301.125 148.894531 297.910156 L 137.199219 163.546875 C 136.90625 160.335938 133.984375 158 130.765625 158.289062 C 127.550781 158.582031 125.210938 161.503906 125.503906 164.71875 Z M 137.199219 299.078125 "/><path style=" stroke:none;fill-rule:nonzero;fill:rgb(0.779724%,0%,39.219666%);fill-opacity:1;" d="M 224.910156 304.335938 C 225.203125 304.335938 225.203125 304.335938 225.496094 304.335938 C 228.417969 304.335938 231.050781 302 231.34375 299.078125 L 243.039062 164.714844 C 243.332031 161.503906 240.992188 158.582031 237.777344 158.289062 C 234.558594 158 231.636719 160.335938 231.34375 163.546875 L 219.648438 297.910156 C 219.355469 301.125 221.695312 304.042969 224.910156 304.335938 Z M 224.910156 304.335938 "/><path style=" stroke:none;fill-rule:nonzero;fill:rgb(0.779724%,0%,39.219666%);fill-opacity:1;" d="M 184.269531 304.335938 C 187.488281 304.335938 190.117188 301.707031 190.117188 298.496094 L 190.117188 96.953125 C 190.117188 93.738281 187.488281 91.109375 184.269531 91.109375 C 181.054688 91.109375 178.421875 93.738281 178.421875 96.953125 L 178.421875 298.496094 C 178.421875 301.707031 181.054688 304.335938 184.269531 304.335938 Z M 184.269531 304.335938 "/><path style=" stroke:none;fill-rule:nonzero;fill:rgb(0.779724%,0%,39.219666%);fill-opacity:1;" d="M 257.949219 339.386719 C 257.949219 339.773438 257.910156 340.152344 257.835938 340.527344 C 257.761719 340.902344 257.652344 341.269531 257.503906 341.625 C 257.355469 341.976562 257.175781 342.316406 256.964844 342.632812 C 256.75 342.953125 256.507812 343.246094 256.238281 343.519531 C 255.964844 343.789062 255.667969 344.03125 255.351562 344.246094 C 255.03125 344.457031 254.695312 344.636719 254.339844 344.785156 C 253.984375 344.933594 253.617188 345.042969 253.242188 345.117188 C 252.867188 345.191406 252.484375 345.230469 252.101562 345.230469 C 251.71875 345.230469 251.335938 345.191406 250.960938 345.117188 C 250.585938 345.042969 250.21875 344.933594 249.863281 344.785156 C 249.507812 344.636719 249.171875 344.457031 248.851562 344.246094 C 248.535156 344.03125 248.238281 343.789062 247.96875 343.519531 C 247.695312 343.246094 247.453125 342.953125 247.238281 342.632812 C 247.027344 342.316406 246.847656 341.976562 246.699219 341.625 C 246.550781 341.269531 246.441406 340.902344 246.367188 340.527344 C 246.292969 340.152344 246.253906 339.773438 246.253906 339.386719 C 246.253906 339.003906 246.292969 338.625 246.367188 338.25 C 246.441406 337.871094 246.550781 337.507812 246.699219 337.152344 C 246.847656 336.796875 247.027344 336.460938 247.238281 336.140625 C 247.453125 335.824219 247.695312 335.527344 247.96875 335.257812 C 248.238281 334.984375 248.535156 334.742188 248.851562 334.53125 C 249.171875 334.316406 249.507812 334.136719 249.863281 333.992188 C 250.21875 333.84375 250.585938 333.734375 250.960938 333.660156 C 251.335938 333.582031 251.71875 333.546875 252.101562 333.546875 C 252.484375 333.546875 252.867188 333.582031 253.242188 333.660156 C 253.617188 333.734375 253.984375 333.84375 254.339844 333.992188 C 254.695312 334.136719 255.03125 334.316406 255.351562 334.53125 C 255.667969 334.742188 255.964844 334.984375 256.238281 335.257812 C 256.507812 335.527344 256.75 335.824219 256.964844 336.140625 C 257.175781 336.460938 257.355469 336.796875 257.503906 337.152344 C 257.652344 337.507812 257.761719 337.871094 257.835938 338.25 C 257.910156 338.625 257.949219 339.003906 257.949219 339.386719 Z M 257.949219 339.386719 "/><g clip-rule="nonzero" clip-path="url(#clip1)"><path style=" stroke:none;fill-rule:nonzero;fill:rgb(0.779724%,0%,39.219666%);fill-opacity:1;" d="M 328.117188 80.300781 C 326.070312 77.964844 323.148438 76.503906 319.640625 76.503906 L 306.484375 76.503906 L 307.359375 64.820312 L 313.792969 64.820312 C 320.222656 64.820312 325.488281 59.5625 325.488281 53.136719 L 325.488281 35.613281 C 325.488281 29.1875 320.222656 23.929688 313.792969 23.929688 L 222.570312 23.929688 L 222.570312 6.402344 C 222.570312 3.191406 219.941406 0.5625 216.722656 0.5625 L 151.816406 0.5625 C 148.601562 0.5625 145.96875 3.191406 145.96875 6.402344 L 145.96875 23.929688 L 54.75 23.929688 C 48.316406 23.929688 43.054688 29.1875 43.054688 35.613281 L 43.054688 53.136719 C 43.054688 59.5625 48.316406 64.820312 54.75 64.820312 L 61.183594 64.820312 L 62.058594 76.503906 L 48.902344 76.503906 C 45.6875 76.503906 42.46875 77.964844 40.421875 80.300781 C 38.378906 82.640625 37.5 85.851562 38.085938 89.066406 L 40.421875 100.75 C 41.007812 103.667969 43.347656 105.421875 46.269531 105.421875 C 46.5625 105.421875 47.148438 105.421875 47.441406 105.421875 C 50.65625 104.835938 52.703125 101.625 52.117188 98.703125 L 50.070312 88.1875 L 62.9375 88.1875 L 83.402344 357.207031 C 83.988281 366.550781 92.171875 374.4375 101.820312 374.4375 L 264.089844 374.4375 C 273.738281 374.4375 281.921875 366.84375 282.507812 357.496094 L 305.605469 88.1875 L 318.761719 88.1875 L 316.714844 98.703125 C 316.132812 101.917969 318.179688 104.835938 321.394531 105.421875 C 321.6875 105.421875 322.269531 105.421875 322.5625 105.421875 C 325.195312 105.421875 327.828125 103.378906 328.410156 100.75 L 330.75 89.066406 C 330.75 85.851562 330.164062 82.640625 328.117188 80.300781 Z M 157.664062 12.246094 L 210.585938 12.246094 L 210.585938 23.929688 L 157.664062 23.929688 Z M 54.75 53.136719 L 54.75 35.613281 L 313.792969 35.613281 L 313.792969 53.136719 Z M 270.519531 356.621094 C 270.230469 360.125 267.304688 362.753906 263.796875 362.753906 L 101.820312 362.753906 C 98.3125 362.753906 95.390625 359.835938 95.390625 356.621094 L 94.511719 345.230469 L 228.710938 345.230469 C 231.929688 345.230469 234.558594 342.601562 234.558594 339.386719 C 234.558594 336.175781 231.929688 333.546875 228.710938 333.546875 L 93.34375 333.546875 L 72.878906 64.820312 L 295.664062 64.820312 Z M 270.519531 356.621094 "/></g></g></svg>